HIERARCHY
ROOT Hips
{
	OFFSET 0.000000 0.000000 0.000000
	CHANNELS 6 Xposition Yposition Zposition Zrotation Yrotation Xrotation 
	JOINT LeftUpLeg_virtual
	{
		OFFSET 0.000000 0.000000 0.000000
		CHANNELS 3 Zrotation Yrotation Xrotation
		JOINT LeftUpLeg
		{
			OFFSET 8.479694 -4.795517 -0.379053
			CHANNELS 3 Zrotation Yrotation Xrotation
			JOINT LeftLeg
			{
				OFFSET 0.485052 -32.551468 0.112863
				CHANNELS 3 Zrotation Yrotation Xrotation
				JOINT LeftFoot
				{
					OFFSET 0.438033 -32.635670 -3.012641
					CHANNELS 3 Zrotation Yrotation Xrotation
					JOINT LeftToeBase
					{
						OFFSET 0.970169 -13.225353 11.864223
						CHANNELS 3 Zrotation Yrotation Xrotation
						End Site
						{
							OFFSET 0.000000 0.000000 0.000000
						}
					}
				}
			}
		}
	}
	JOINT RightUpLeg_virtual
	{
		OFFSET 0.000000 0.000000 0.000000
		CHANNELS 3 Zrotation Yrotation Xrotation
		JOINT RightUpLeg
		{
			OFFSET -8.479694 -4.795517 -0.379053
			CHANNELS 3 Zrotation Yrotation Xrotation
			JOINT RightLeg
			{
				OFFSET -0.484100 -32.551483 0.112903
				CHANNELS 3 Zrotation Yrotation Xrotation
				JOINT RightFoot
				{
					OFFSET -0.438985 -32.635651 -3.012681
					CHANNELS 3 Zrotation Yrotation Xrotation
					JOINT RightToeBase
					{
						OFFSET -0.970169 -13.225354 11.864223
						CHANNELS 3 Zrotation Yrotation Xrotation
						End Site
						{
							OFFSET 0.000000 0.000000 0.000000
						}
					}
				}
			}
		}
	}
	JOINT Spine_virtual
	{
		OFFSET 0.000000 0.000000 0.000000
		CHANNELS 3 Zrotation Yrotation Xrotation
		JOINT Spine
		{
			OFFSET 0.000000 7.722015 1.166203
			CHANNELS 3 Zrotation Yrotation Xrotation
			JOINT Spine1
			{
				OFFSET 0.000000 12.024086 0.248766
				CHANNELS 3 Zrotation Yrotation Xrotation
				JOINT Spine2
				{
					OFFSET -0.000000 11.503036 -0.491240
					CHANNELS 3 Zrotation Yrotation Xrotation
					JOINT Neck_virtual
					{
						OFFSET 0.000000 0.000000 0.000000
						CHANNELS 3 Zrotation Yrotation Xrotation
						JOINT Neck
						{
							OFFSET 0.000000 18.430687 -3.123054
							CHANNELS 3 Zrotation Yrotation Xrotation
							JOINT Head
							{
								OFFSET -0.000000 9.051071 1.034021
								CHANNELS 3 Zrotation Yrotation Xrotation
								End Site
								{
									OFFSET 0.000000 0.000000 0.000000
								}
							}
						}
					}
					JOINT LeftShoulder_virtual
					{
						OFFSET 0.000000 0.000000 0.000000
						CHANNELS 3 Zrotation Yrotation Xrotation
						JOINT LeftShoulder
						{
							OFFSET 6.197824 13.665230 -4.064723
							CHANNELS 3 Zrotation Yrotation Xrotation
							JOINT LeftArm
							{
								OFFSET 7.778132 -0.187073 -1.709282
								CHANNELS 3 Zrotation Yrotation Xrotation
								JOINT LeftForeArm
								{
									OFFSET 21.954697 0.000000 -2.041093
									CHANNELS 3 Zrotation Yrotation Xrotation
									JOINT LeftHand
									{
										OFFSET 22.992908 0.000000 -0.870901
										CHANNELS 3 Zrotation Yrotation Xrotation
										End Site
										{
											OFFSET 0.000000 0.000000 0.000000
										}
									}
								}
							}
						}
					}
					JOINT RightShoulder_virtual
					{
						OFFSET 0.000000 0.000000 0.000000
						CHANNELS 3 Zrotation Yrotation Xrotation
						JOINT RightShoulder
						{
							OFFSET -6.197824 13.665230 -4.064723
							CHANNELS 3 Zrotation Yrotation Xrotation
							JOINT RightArm
							{
								OFFSET -7.778132 -0.187073 -1.709282
								CHANNELS 3 Zrotation Yrotation Xrotation
								JOINT RightForeArm
								{
									OFFSET -21.954697 0.000000 -2.041093
									CHANNELS 3 Zrotation Yrotation Xrotation
									JOINT RightHand
									{
										OFFSET -22.992908 0.000000 -0.870901
										CHANNELS 3 Zrotation Yrotation Xrotation
										End Site
										{
											OFFSET 0.000000 0.000000 0.000000
										}
									}
								}
							}
						}
					}
				}
			}
		}
	}
}
MOTION
Frames: 7
Frame Time: 0.033333
35.861256 80.940529 -73.138435 -179.736059 -75.218572 179.768912 -3.309727 -8.589394 14.223733 5.598504 -5.517624 -41.313752 2.583832 1.257674 52.565074 -1.423963 -10.874354 -2.144142 0.000000 0.000000 0.000000 -0.593443 -10.540870 13.696466 -3.231913 1.245052 -24.678641 -1.388305 3.395735 34.133047 8.904460 7.911949 -14.032282 0.000000 0.000000 0.000000 1.413489 -6.023750 6.239323 2.060299 7.197911 -6.887021 0.048120 -2.319873 5.402857 -0.034410 0.004264 -0.004858 0.295136 -1.368123 5.459583 -7.323592 4.962825 -4.823036 0.000000 0.000000 0.000000 1.593484 -0.748858 2.509147 18.968689 -2.093989 8.108267 -9.919781 6.800694 3.271626 -9.492296 -61.680645 16.098995 0.000000 0.000000 0.000000 -2.621140 0.465586 1.918048 31.604539 -2.368413 4.776327 39.662803 -13.732003 10.506071 -3.599716 40.445563 -2.444056 0.000000 0.000000 0.000000 
33.804783 81.151840 -73.987122 -179.673863 -77.696318 179.686622 -3.308986 -9.358706 14.395090 4.829323 -3.673575 -43.581231 2.365383 1.447119 47.911670 -0.539479 -11.181167 -1.563801 0.000000 0.000000 0.000000 -0.012947 -11.219126 14.150923 -3.374734 -0.753986 -22.305897 -1.384546 3.456558 32.656176 8.928527 7.648884 -14.248884 0.000000 0.000000 0.000000 1.598140 -6.523156 6.517681 2.373299 7.686287 -7.256630 -0.038780 -2.408569 5.291697 -0.046809 0.011301 -0.000880 0.240397 -1.757766 5.361632 -7.329912 5.045090 -5.110212 0.000000 0.000000 0.000000 1.530904 -0.834169 2.497761 19.260228 -1.547915 8.140499 -9.766355 7.249374 2.645472 -9.828945 -63.201216 17.788762 0.000000 0.000000 0.000000 -2.761029 0.338103 1.826422 32.118077 -1.820557 5.097059 38.144957 -11.796403 10.000802 -3.377979 41.719940 -2.275783 0.000000 0.000000 0.000000 
31.688120 81.223923 -74.803932 179.950227 -79.773994 -179.977028 -3.372861 -9.595811 14.756470 3.833725 -1.960802 -45.775176 2.190467 1.784497 41.844481 0.238741 -11.733314 -1.209756 0.000000 0.000000 0.000000 0.517458 -11.657150 14.424063 -3.614591 -2.655355 -19.938924 -1.322057 3.509642 31.639082 9.149362 7.473837 -14.532252 0.000000 0.000000 0.000000 1.628963 -6.771499 6.870358 2.547079 8.153312 -7.785160 -0.142051 -2.494500 5.202392 -0.012743 0.033027 0.014588 0.114237 -1.635818 5.262117 -7.367590 5.134035 -5.329565 0.000000 0.000000 0.000000 1.452911 -0.891883 2.392090 19.352812 -0.843577 8.264590 -9.724240 7.989200 2.065081 -10.232932 -64.877925 19.783250 0.000000 0.000000 0.000000 -2.888531 0.286982 1.764826 32.651364 -1.243698 5.446336 36.554759 -9.578843 9.800235 -3.157265 42.816099 -1.991405 0.000000 0.000000 0.000000 
29.589378 81.113914 -75.502373 179.104062 -81.922163 -179.103051 -3.586077 -9.876069 15.158657 2.565757 -0.129275 -47.880634 1.942109 1.889958 35.512486 0.929991 -12.271228 -1.119196 0.000000 0.000000 0.000000 0.977119 -12.186161 14.874914 -4.111294 -4.195258 -18.168672 -1.048626 3.410104 31.053930 9.311086 7.215871 -15.003007 0.000000 0.000000 0.000000 1.560628 -6.889765 7.206367 2.637176 8.511440 -8.465912 -0.249148 -2.618533 5.105507 0.008785 0.011096 -0.010247 0.045696 -1.740422 5.215791 -7.528127 5.343619 -5.534689 0.000000 0.000000 0.000000 1.430264 -0.965658 2.307965 19.416980 -0.029481 8.389428 -9.735152 8.719582 1.470014 -11.305246 -67.436698 22.696980 0.000000 0.000000 0.000000 -2.992311 0.261251 1.710017 33.209152 -0.619995 5.778938 35.011051 -7.158321 9.812117 -2.899829 43.810995 -1.621209 0.000000 0.000000 0.000000 
27.373394 80.861748 -76.110565 177.079375 -84.085994 -177.156119 -3.930504 -9.929647 15.596013 1.079917 1.494244 -49.589287 1.789734 2.084138 30.021226 1.491197 -12.670396 -1.257186 0.000000 0.000000 0.000000 0.833439 -12.645111 14.474197 -4.272047 -5.433475 -15.302767 -0.489565 3.166382 30.741691 9.283638 6.676484 -15.604756 0.000000 0.000000 0.000000 1.339201 -6.903548 7.539287 2.524274 8.874790 -9.112654 -0.344141 -2.645516 5.088067 0.031837 0.050092 0.006806 -0.024799 -1.826229 5.173334 -7.643646 5.523898 -5.594575 0.000000 0.000000 0.000000 1.383830 -1.051873 2.229813 19.506277 0.780348 8.430471 -9.720525 9.136404 1.464411 -13.618416 -71.377997 26.978207 0.000000 0.000000 0.000000 -3.059352 0.168008 1.585305 33.762861 -0.127400 6.137497 33.653865 -4.344064 10.126996 -2.811153 44.431887 -1.291550 0.000000 0.000000 0.000000 
25.022793 80.512543 -76.602470 175.287516 -85.789225 -175.364274 -4.171748 -9.943780 15.967437 -0.568371 3.237753 -50.816823 1.856390 2.699702 26.085585 1.753412 -12.993739 -1.545578 0.000000 0.000000 0.000000 0.476984 -13.561326 14.702255 -4.387041 -6.698599 -13.404617 -0.229074 2.833755 30.596498 9.845764 6.654416 -15.273638 0.000000 0.000000 0.000000 1.053207 -6.940559 7.596073 2.297173 9.188196 -9.623385 -0.375475 -2.639557 5.083535 0.099928 0.083024 0.005883 -0.046380 -1.795370 5.117491 -7.843373 6.146060 -5.648330 0.000000 0.000000 0.000000 1.438072 -1.030909 2.006850 19.559244 1.645062 8.507275 -9.850056 9.194738 1.916317 -20.213154 -76.551558 35.589244 0.000000 0.000000 0.000000 -3.031878 0.248103 1.534611 34.249184 0.483567 6.521184 32.571174 -1.463301 10.742064 -2.666530 44.836722 -0.860512 0.000000 0.000000 0.000000 
22.500185 80.162666 -76.906601 170.270592 -87.834812 -170.293828 -4.460328 -9.835853 16.061752 -1.986919 4.296787 -51.197780 2.236803 2.879057 24.039063 1.941281 -13.072571 -1.872874 0.000000 0.000000 0.000000 0.097743 -13.793179 15.443206 -4.754049 -7.456158 -12.534586 0.280933 3.112981 31.409865 11.551961 7.748295 -13.717881 0.000000 0.000000 0.000000 0.731847 -6.919639 7.506686 1.951937 9.478983 -10.037121 -0.395749 -2.549134 5.082157 0.104535 0.164014 0.022936 -0.107870 -1.810754 5.160272 -8.045288 6.257418 -5.572983 0.000000 0.000000 0.000000 1.524415 -1.056801 1.972459 19.742387 2.347428 8.578390 -10.074065 8.682799 2.300833 -37.592364 -81.788189 54.972870 0.000000 0.000000 0.000000 -3.023392 0.192524 1.427771 34.595424 0.906716 6.698249 32.054037 1.118318 11.620468 -2.517847 45.067815 -0.372644 0.000000 0.000000 0.000000 
